<?xml version="1.0" standalone="no"?>
<!DOCTYPE svg PUBLIC "-//W3C//DTD SVG 20010904//EN"
 "http://www.w3.org/TR/2001/REC-SVG-20010904/DTD/svg10.dtd">
<svg version="1.0" xmlns="http://www.w3.org/2000/svg"
 width="170.000000pt" height="158.000000pt" viewBox="0 0 170.000000 158.000000"
 preserveAspectRatio="xMidYMid meet">

<g transform="translate(0.000000,158.000000) scale(0.100000,-0.100000)"
fill="#000000" stroke="none">
<path d="M739 1530 c-237 -44 -371 -115 -427 -227 -27 -54 -37 -97 -20 -90
183 80 251 92 533 92 195 0 248 -4 347 -23 64 -12 124 -22 132 -22 8 0 50 51
94 113 l81 112 -52 12 c-223 53 -507 66 -688 33z"/>
<path d="M878 1128 c-14 -24 -50 -76 -78 -116 -29 -41 -49 -77 -44 -81 5 -5
37 -18 71 -29 l63 -21 73 107 c40 59 76 112 80 118 4 8 -18 21 -64 38 -38 14
-71 26 -72 26 -1 0 -14 -19 -29 -42z"/>
<path d="M1410 354 c-160 -90 -576 -112 -909 -47 l-85 17 -17 -25 c-141 -194
-147 -204 -128 -211 10 -4 87 -18 172 -32 377 -63 756 -5 917 140 45 41 83
112 78 148 -3 23 -4 24 -28 10z"/>
</g>
</svg>
